<mxfile host="app.diagrams.net" modified="2024-03-05T11:06:27.287Z" agent="Mozilla/5.0 (X11; Ubuntu; Linux x86_64; rv:123.0) Gecko/20100101 Firefox/123.0" version="24.0.1" etag="6ZNvyez7Yud3nEJjSU77" type="github">
  <diagram name="Page-1" id="yff2rElzvUlnZmW0NOCa">
    <mxGraphModel>
      <root>
        <mxCell id="0" />
        <mxCell id="1" parent="0" />
      </root>
    </mxGraphModel>
  </diagram>
</mxfile>
